<mxfile host="app.diagrams.net" agent="Mozilla/5.0 (Windows NT 10.0; Win64; x64) AppleWebKit/537.36 (KHTML, like Gecko) Chrome/130.0.0.0 Safari/537.36" version="24.8.6">
  <diagram name="Сторінка-1" id="ftqmzm-4EnECPN6NXVMF">
    <mxGraphModel grid="1" page="1" gridSize="10" guides="1" tooltips="1" connect="1" arrows="1" fold="1" pageScale="1" pageWidth="827" pageHeight="1169" math="0" shadow="0">
      <root>
        <mxCell id="0" />
        <mxCell id="1" parent="0" />
        <mxCell id="n_DNDWNUgmgqfhdWU4qN-3" value="" style="edgeStyle=orthogonalEdgeStyle;rounded=0;orthogonalLoop=1;jettySize=auto;html=1;" edge="1" parent="1" source="n_DNDWNUgmgqfhdWU4qN-1" target="n_DNDWNUgmgqfhdWU4qN-2">
          <mxGeometry relative="1" as="geometry" />
        </mxCell>
        <mxCell id="n_DNDWNUgmgqfhdWU4qN-1" value="&lt;font style=&quot;font-size: 18px;&quot;&gt;Start&lt;/font&gt;" style="ellipse;whiteSpace=wrap;html=1;" vertex="1" parent="1">
          <mxGeometry x="50" y="40" width="120" height="80" as="geometry" />
        </mxCell>
        <mxCell id="n_DNDWNUgmgqfhdWU4qN-5" value="" style="edgeStyle=orthogonalEdgeStyle;rounded=0;orthogonalLoop=1;jettySize=auto;html=1;" edge="1" parent="1" source="n_DNDWNUgmgqfhdWU4qN-2" target="n_DNDWNUgmgqfhdWU4qN-4">
          <mxGeometry relative="1" as="geometry" />
        </mxCell>
        <mxCell id="n_DNDWNUgmgqfhdWU4qN-2" value="&lt;font style=&quot;font-size: 14px;&quot;&gt;const int SIZE = 100;&lt;br&gt;int stack [ SIZE ];&lt;/font&gt;" style="rounded=0;whiteSpace=wrap;html=1;" vertex="1" parent="1">
          <mxGeometry x="40" y="160" width="140" height="60" as="geometry" />
        </mxCell>
        <mxCell id="n_DNDWNUgmgqfhdWU4qN-8" value="" style="edgeStyle=orthogonalEdgeStyle;rounded=0;orthogonalLoop=1;jettySize=auto;html=1;" edge="1" parent="1" source="n_DNDWNUgmgqfhdWU4qN-4" target="n_DNDWNUgmgqfhdWU4qN-7">
          <mxGeometry relative="1" as="geometry" />
        </mxCell>
        <mxCell id="n_DNDWNUgmgqfhdWU4qN-4" value="&lt;font style=&quot;font-size: 14px;&quot;&gt;int length = 0;&lt;br&gt;int choice;&lt;/font&gt;" style="rounded=0;whiteSpace=wrap;html=1;" vertex="1" parent="1">
          <mxGeometry x="50" y="250" width="120" height="60" as="geometry" />
        </mxCell>
        <mxCell id="n_DNDWNUgmgqfhdWU4qN-10" value="" style="edgeStyle=orthogonalEdgeStyle;rounded=0;orthogonalLoop=1;jettySize=auto;html=1;" edge="1" parent="1" source="n_DNDWNUgmgqfhdWU4qN-7" target="n_DNDWNUgmgqfhdWU4qN-9">
          <mxGeometry relative="1" as="geometry" />
        </mxCell>
        <mxCell id="n_DNDWNUgmgqfhdWU4qN-7" value="&lt;font style=&quot;font-size: 14px;&quot;&gt;введення початкового&lt;br&gt;&amp;nbsp;розміру стеку&lt;/font&gt;" style="shape=parallelogram;perimeter=parallelogramPerimeter;whiteSpace=wrap;html=1;fixedSize=1;" vertex="1" parent="1">
          <mxGeometry x="45" y="360" width="130" height="60" as="geometry" />
        </mxCell>
        <mxCell id="n_DNDWNUgmgqfhdWU4qN-12" value="" style="edgeStyle=orthogonalEdgeStyle;rounded=0;orthogonalLoop=1;jettySize=auto;html=1;" edge="1" parent="1" source="n_DNDWNUgmgqfhdWU4qN-9" target="n_DNDWNUgmgqfhdWU4qN-11">
          <mxGeometry relative="1" as="geometry" />
        </mxCell>
        <mxCell id="n_DNDWNUgmgqfhdWU4qN-14" value="" style="edgeStyle=orthogonalEdgeStyle;rounded=0;orthogonalLoop=1;jettySize=auto;html=1;" edge="1" parent="1" source="n_DNDWNUgmgqfhdWU4qN-9" target="n_DNDWNUgmgqfhdWU4qN-13">
          <mxGeometry relative="1" as="geometry" />
        </mxCell>
        <mxCell id="n_DNDWNUgmgqfhdWU4qN-9" value="&lt;font style=&quot;font-size: 14px;&quot;&gt;Розмір більший 100 ?&lt;/font&gt;" style="rhombus;whiteSpace=wrap;html=1;" vertex="1" parent="1">
          <mxGeometry x="70" y="450" width="80" height="100" as="geometry" />
        </mxCell>
        <mxCell id="n_DNDWNUgmgqfhdWU4qN-21" value="" style="edgeStyle=orthogonalEdgeStyle;rounded=0;orthogonalLoop=1;jettySize=auto;html=1;" edge="1" parent="1" source="n_DNDWNUgmgqfhdWU4qN-11" target="n_DNDWNUgmgqfhdWU4qN-20">
          <mxGeometry relative="1" as="geometry" />
        </mxCell>
        <mxCell id="n_DNDWNUgmgqfhdWU4qN-11" value="Invalid stack size" style="shape=parallelogram;perimeter=parallelogramPerimeter;whiteSpace=wrap;html=1;fixedSize=1;" vertex="1" parent="1">
          <mxGeometry x="230" y="470" width="120" height="60" as="geometry" />
        </mxCell>
        <mxCell id="n_DNDWNUgmgqfhdWU4qN-23" value="" style="edgeStyle=orthogonalEdgeStyle;rounded=0;orthogonalLoop=1;jettySize=auto;html=1;" edge="1" parent="1" source="n_DNDWNUgmgqfhdWU4qN-13" target="n_DNDWNUgmgqfhdWU4qN-22">
          <mxGeometry relative="1" as="geometry" />
        </mxCell>
        <mxCell id="n_DNDWNUgmgqfhdWU4qN-13" value="&lt;span style=&quot;font-size: 14px;&quot;&gt;Розмір менший &lt;br&gt;0 ?&lt;/span&gt;" style="rhombus;whiteSpace=wrap;html=1;" vertex="1" parent="1">
          <mxGeometry x="70" y="580" width="80" height="95" as="geometry" />
        </mxCell>
        <mxCell id="n_DNDWNUgmgqfhdWU4qN-15" value="&lt;font style=&quot;font-size: 14px;&quot;&gt;YES&lt;/font&gt;" style="text;strokeColor=none;align=center;fillColor=none;html=1;verticalAlign=middle;whiteSpace=wrap;rounded=0;" vertex="1" parent="1">
          <mxGeometry x="140" y="470" width="60" height="30" as="geometry" />
        </mxCell>
        <mxCell id="n_DNDWNUgmgqfhdWU4qN-16" value="&lt;font style=&quot;font-size: 14px;&quot;&gt;YES&lt;/font&gt;" style="text;strokeColor=none;align=center;fillColor=none;html=1;verticalAlign=middle;whiteSpace=wrap;rounded=0;" vertex="1" parent="1">
          <mxGeometry x="150" y="600" width="60" height="30" as="geometry" />
        </mxCell>
        <mxCell id="n_DNDWNUgmgqfhdWU4qN-17" value="" style="endArrow=none;html=1;rounded=0;exitX=1;exitY=0.5;exitDx=0;exitDy=0;" edge="1" parent="1" source="n_DNDWNUgmgqfhdWU4qN-13">
          <mxGeometry width="50" height="50" relative="1" as="geometry">
            <mxPoint x="390" y="520" as="sourcePoint" />
            <mxPoint x="210" y="628" as="targetPoint" />
            <Array as="points">
              <mxPoint x="210" y="628" />
              <mxPoint x="260" y="628" />
            </Array>
          </mxGeometry>
        </mxCell>
        <mxCell id="n_DNDWNUgmgqfhdWU4qN-18" value="" style="endArrow=classic;html=1;rounded=0;entryX=0.25;entryY=1;entryDx=0;entryDy=0;" edge="1" parent="1" target="n_DNDWNUgmgqfhdWU4qN-11">
          <mxGeometry width="50" height="50" relative="1" as="geometry">
            <mxPoint x="260" y="630" as="sourcePoint" />
            <mxPoint x="370" y="510" as="targetPoint" />
          </mxGeometry>
        </mxCell>
        <mxCell id="n_DNDWNUgmgqfhdWU4qN-19" value="&lt;span style=&quot;font-size: 14px;&quot;&gt;NO&lt;/span&gt;" style="text;strokeColor=none;align=center;fillColor=none;html=1;verticalAlign=middle;whiteSpace=wrap;rounded=0;" vertex="1" parent="1">
          <mxGeometry x="50" y="550" width="60" height="30" as="geometry" />
        </mxCell>
        <mxCell id="n_DNDWNUgmgqfhdWU4qN-20" value="&lt;font style=&quot;font-size: 18px;&quot;&gt;return 1&lt;/font&gt;" style="ellipse;whiteSpace=wrap;html=1;" vertex="1" parent="1">
          <mxGeometry x="400" y="466.66999999999996" width="100" height="66.67" as="geometry" />
        </mxCell>
        <mxCell id="n_DNDWNUgmgqfhdWU4qN-25" value="" style="edgeStyle=orthogonalEdgeStyle;rounded=0;orthogonalLoop=1;jettySize=auto;html=1;" edge="1" parent="1" source="n_DNDWNUgmgqfhdWU4qN-22" target="n_DNDWNUgmgqfhdWU4qN-24">
          <mxGeometry relative="1" as="geometry" />
        </mxCell>
        <mxCell id="n_DNDWNUgmgqfhdWU4qN-22" value="&lt;font style=&quot;font-size: 14px;&quot;&gt;Ведення&lt;br&gt;елементів&lt;/font&gt;" style="shape=parallelogram;perimeter=parallelogramPerimeter;whiteSpace=wrap;html=1;fixedSize=1;" vertex="1" parent="1">
          <mxGeometry x="50" y="720" width="120" height="60" as="geometry" />
        </mxCell>
        <mxCell id="n_DNDWNUgmgqfhdWU4qN-28" value="" style="edgeStyle=orthogonalEdgeStyle;rounded=0;orthogonalLoop=1;jettySize=auto;html=1;" edge="1" parent="1" source="n_DNDWNUgmgqfhdWU4qN-24" target="n_DNDWNUgmgqfhdWU4qN-27">
          <mxGeometry relative="1" as="geometry" />
        </mxCell>
        <mxCell id="n_DNDWNUgmgqfhdWU4qN-24" value="printStack( stack, length )" style="shape=process;whiteSpace=wrap;html=1;backgroundOutline=1;size=0.08333333333333333;" vertex="1" parent="1">
          <mxGeometry x="50" y="840" width="120" height="60" as="geometry" />
        </mxCell>
        <mxCell id="n_DNDWNUgmgqfhdWU4qN-66" value="" style="edgeStyle=orthogonalEdgeStyle;rounded=0;orthogonalLoop=1;jettySize=auto;html=1;" edge="1" parent="1" source="n_DNDWNUgmgqfhdWU4qN-26" target="n_DNDWNUgmgqfhdWU4qN-65">
          <mxGeometry relative="1" as="geometry" />
        </mxCell>
        <mxCell id="n_DNDWNUgmgqfhdWU4qN-26" value="&lt;font style=&quot;font-size: 14px;&quot;&gt;printStack( stack, length )&lt;/font&gt;" style="ellipse;whiteSpace=wrap;html=1;" vertex="1" parent="1">
          <mxGeometry x="220" y="40" width="120" height="80" as="geometry" />
        </mxCell>
        <mxCell id="n_DNDWNUgmgqfhdWU4qN-30" value="" style="edgeStyle=orthogonalEdgeStyle;rounded=0;orthogonalLoop=1;jettySize=auto;html=1;" edge="1" parent="1" source="n_DNDWNUgmgqfhdWU4qN-27" target="n_DNDWNUgmgqfhdWU4qN-29">
          <mxGeometry relative="1" as="geometry" />
        </mxCell>
        <mxCell id="n_DNDWNUgmgqfhdWU4qN-27" value="while( true )" style="rhombus;whiteSpace=wrap;html=1;" vertex="1" parent="1">
          <mxGeometry x="70" y="950" width="80" height="80" as="geometry" />
        </mxCell>
        <mxCell id="n_DNDWNUgmgqfhdWU4qN-32" value="" style="edgeStyle=orthogonalEdgeStyle;rounded=0;orthogonalLoop=1;jettySize=auto;html=1;" edge="1" parent="1" source="n_DNDWNUgmgqfhdWU4qN-29" target="n_DNDWNUgmgqfhdWU4qN-31">
          <mxGeometry relative="1" as="geometry" />
        </mxCell>
        <mxCell id="n_DNDWNUgmgqfhdWU4qN-29" value="&lt;font style=&quot;font-size: 14px;&quot;&gt;Введення операції&lt;/font&gt;" style="shape=parallelogram;perimeter=parallelogramPerimeter;whiteSpace=wrap;html=1;fixedSize=1;" vertex="1" parent="1">
          <mxGeometry x="50" y="1060" width="120" height="60" as="geometry" />
        </mxCell>
        <mxCell id="n_DNDWNUgmgqfhdWU4qN-34" value="" style="edgeStyle=orthogonalEdgeStyle;rounded=0;orthogonalLoop=1;jettySize=auto;html=1;" edge="1" parent="1" source="n_DNDWNUgmgqfhdWU4qN-31" target="n_DNDWNUgmgqfhdWU4qN-33">
          <mxGeometry relative="1" as="geometry" />
        </mxCell>
        <mxCell id="n_DNDWNUgmgqfhdWU4qN-42" value="" style="edgeStyle=orthogonalEdgeStyle;rounded=0;orthogonalLoop=1;jettySize=auto;html=1;" edge="1" parent="1" source="n_DNDWNUgmgqfhdWU4qN-31" target="n_DNDWNUgmgqfhdWU4qN-41">
          <mxGeometry relative="1" as="geometry" />
        </mxCell>
        <mxCell id="n_DNDWNUgmgqfhdWU4qN-31" value="&lt;font style=&quot;font-size: 14px;&quot;&gt;choice == 1&lt;/font&gt;" style="rhombus;whiteSpace=wrap;html=1;" vertex="1" parent="1">
          <mxGeometry x="220" y="1045" width="90" height="90" as="geometry" />
        </mxCell>
        <mxCell id="n_DNDWNUgmgqfhdWU4qN-36" value="" style="edgeStyle=orthogonalEdgeStyle;rounded=0;orthogonalLoop=1;jettySize=auto;html=1;" edge="1" parent="1" source="n_DNDWNUgmgqfhdWU4qN-33" target="n_DNDWNUgmgqfhdWU4qN-35">
          <mxGeometry relative="1" as="geometry" />
        </mxCell>
        <mxCell id="n_DNDWNUgmgqfhdWU4qN-33" value="&lt;font style=&quot;font-size: 14px;&quot;&gt;int value;&lt;/font&gt;" style="rounded=0;whiteSpace=wrap;html=1;" vertex="1" parent="1">
          <mxGeometry x="380" y="1070" width="80" height="40" as="geometry" />
        </mxCell>
        <mxCell id="n_DNDWNUgmgqfhdWU4qN-38" value="" style="edgeStyle=orthogonalEdgeStyle;rounded=0;orthogonalLoop=1;jettySize=auto;html=1;" edge="1" parent="1" source="n_DNDWNUgmgqfhdWU4qN-35">
          <mxGeometry relative="1" as="geometry">
            <mxPoint x="620" y="1090" as="targetPoint" />
          </mxGeometry>
        </mxCell>
        <mxCell id="n_DNDWNUgmgqfhdWU4qN-35" value="&lt;font style=&quot;font-size: 14px;&quot;&gt;Введення елемента&lt;/font&gt;" style="shape=parallelogram;perimeter=parallelogramPerimeter;whiteSpace=wrap;html=1;fixedSize=1;" vertex="1" parent="1">
          <mxGeometry x="480" y="1060" width="120" height="60" as="geometry" />
        </mxCell>
        <mxCell id="n_DNDWNUgmgqfhdWU4qN-39" value="&lt;font style=&quot;font-size: 14px;&quot;&gt;YES&lt;/font&gt;" style="text;strokeColor=none;align=center;fillColor=none;html=1;verticalAlign=middle;whiteSpace=wrap;rounded=0;" vertex="1" parent="1">
          <mxGeometry x="310" y="1050" width="60" height="30" as="geometry" />
        </mxCell>
        <mxCell id="n_DNDWNUgmgqfhdWU4qN-45" value="" style="edgeStyle=orthogonalEdgeStyle;rounded=0;orthogonalLoop=1;jettySize=auto;html=1;" edge="1" parent="1" source="n_DNDWNUgmgqfhdWU4qN-41">
          <mxGeometry relative="1" as="geometry">
            <mxPoint x="360" y="1205" as="targetPoint" />
          </mxGeometry>
        </mxCell>
        <mxCell id="n_DNDWNUgmgqfhdWU4qN-48" value="" style="edgeStyle=orthogonalEdgeStyle;rounded=0;orthogonalLoop=1;jettySize=auto;html=1;" edge="1" parent="1" source="n_DNDWNUgmgqfhdWU4qN-41" target="n_DNDWNUgmgqfhdWU4qN-47">
          <mxGeometry relative="1" as="geometry" />
        </mxCell>
        <mxCell id="n_DNDWNUgmgqfhdWU4qN-41" value="&lt;font style=&quot;font-size: 14px;&quot;&gt;choice == 2&lt;/font&gt;" style="rhombus;whiteSpace=wrap;html=1;" vertex="1" parent="1">
          <mxGeometry x="220" y="1160" width="90" height="90" as="geometry" />
        </mxCell>
        <mxCell id="n_DNDWNUgmgqfhdWU4qN-43" value="&lt;span style=&quot;font-size: 14px;&quot;&gt;NO&lt;/span&gt;" style="text;strokeColor=none;align=center;fillColor=none;html=1;verticalAlign=middle;whiteSpace=wrap;rounded=0;" vertex="1" parent="1">
          <mxGeometry x="200" y="1130" width="60" height="30" as="geometry" />
        </mxCell>
        <mxCell id="n_DNDWNUgmgqfhdWU4qN-46" value="&lt;font style=&quot;font-size: 14px;&quot;&gt;YES&lt;/font&gt;" style="text;strokeColor=none;align=center;fillColor=none;html=1;verticalAlign=middle;whiteSpace=wrap;rounded=0;" vertex="1" parent="1">
          <mxGeometry x="300" y="1169" width="60" height="30" as="geometry" />
        </mxCell>
        <mxCell id="n_DNDWNUgmgqfhdWU4qN-51" value="" style="edgeStyle=orthogonalEdgeStyle;rounded=0;orthogonalLoop=1;jettySize=auto;html=1;" edge="1" parent="1" source="n_DNDWNUgmgqfhdWU4qN-47" target="n_DNDWNUgmgqfhdWU4qN-50">
          <mxGeometry relative="1" as="geometry" />
        </mxCell>
        <mxCell id="n_DNDWNUgmgqfhdWU4qN-57" value="" style="edgeStyle=orthogonalEdgeStyle;rounded=0;orthogonalLoop=1;jettySize=auto;html=1;" edge="1" parent="1" source="n_DNDWNUgmgqfhdWU4qN-47" target="n_DNDWNUgmgqfhdWU4qN-56">
          <mxGeometry relative="1" as="geometry" />
        </mxCell>
        <mxCell id="n_DNDWNUgmgqfhdWU4qN-47" value="&lt;font style=&quot;font-size: 14px;&quot;&gt;choice == 3&lt;/font&gt;" style="rhombus;whiteSpace=wrap;html=1;" vertex="1" parent="1">
          <mxGeometry x="220" y="1270" width="90" height="90" as="geometry" />
        </mxCell>
        <mxCell id="n_DNDWNUgmgqfhdWU4qN-49" value="&lt;span style=&quot;font-size: 14px;&quot;&gt;NO&lt;/span&gt;" style="text;strokeColor=none;align=center;fillColor=none;html=1;verticalAlign=middle;whiteSpace=wrap;rounded=0;" vertex="1" parent="1">
          <mxGeometry x="210" y="1240" width="60" height="30" as="geometry" />
        </mxCell>
        <mxCell id="n_DNDWNUgmgqfhdWU4qN-54" value="" style="edgeStyle=orthogonalEdgeStyle;rounded=0;orthogonalLoop=1;jettySize=auto;html=1;" edge="1" parent="1" source="n_DNDWNUgmgqfhdWU4qN-50">
          <mxGeometry relative="1" as="geometry">
            <mxPoint x="500.0000007032129" y="1315" as="targetPoint" />
          </mxGeometry>
        </mxCell>
        <mxCell id="n_DNDWNUgmgqfhdWU4qN-50" value="Exiting program." style="shape=parallelogram;perimeter=parallelogramPerimeter;whiteSpace=wrap;html=1;fixedSize=1;" vertex="1" parent="1">
          <mxGeometry x="350" y="1285" width="120" height="60" as="geometry" />
        </mxCell>
        <mxCell id="n_DNDWNUgmgqfhdWU4qN-55" value="&lt;font style=&quot;font-size: 14px;&quot;&gt;break;&lt;/font&gt;" style="rounded=0;whiteSpace=wrap;html=1;" vertex="1" parent="1">
          <mxGeometry x="500" y="1295" width="80" height="40" as="geometry" />
        </mxCell>
        <mxCell id="n_DNDWNUgmgqfhdWU4qN-56" value="&lt;font style=&quot;font-size: 14px;&quot;&gt;Invalid choice. &lt;br&gt;Try again&lt;/font&gt;" style="shape=parallelogram;perimeter=parallelogramPerimeter;whiteSpace=wrap;html=1;fixedSize=1;" vertex="1" parent="1">
          <mxGeometry x="202.5" y="1410" width="125" height="60" as="geometry" />
        </mxCell>
        <mxCell id="n_DNDWNUgmgqfhdWU4qN-58" value="&lt;span style=&quot;font-size: 14px;&quot;&gt;NO&lt;/span&gt;" style="text;strokeColor=none;align=center;fillColor=none;html=1;verticalAlign=middle;whiteSpace=wrap;rounded=0;" vertex="1" parent="1">
          <mxGeometry x="210" y="1360" width="60" height="30" as="geometry" />
        </mxCell>
        <mxCell id="n_DNDWNUgmgqfhdWU4qN-59" value="" style="endArrow=none;html=1;rounded=0;" edge="1" parent="1">
          <mxGeometry width="50" height="50" relative="1" as="geometry">
            <mxPoint x="480" y="1209" as="sourcePoint" />
            <mxPoint x="800" y="1209" as="targetPoint" />
          </mxGeometry>
        </mxCell>
        <mxCell id="n_DNDWNUgmgqfhdWU4qN-60" value="" style="endArrow=none;html=1;rounded=0;exitX=1;exitY=0.5;exitDx=0;exitDy=0;" edge="1" parent="1" source="n_DNDWNUgmgqfhdWU4qN-73">
          <mxGeometry width="50" height="50" relative="1" as="geometry">
            <mxPoint x="750" y="1089.58" as="sourcePoint" />
            <mxPoint x="800" y="1089" as="targetPoint" />
          </mxGeometry>
        </mxCell>
        <mxCell id="n_DNDWNUgmgqfhdWU4qN-61" value="" style="endArrow=none;html=1;rounded=0;" edge="1" parent="1">
          <mxGeometry width="50" height="50" relative="1" as="geometry">
            <mxPoint x="800" y="1210" as="sourcePoint" />
            <mxPoint x="800" y="990" as="targetPoint" />
          </mxGeometry>
        </mxCell>
        <mxCell id="n_DNDWNUgmgqfhdWU4qN-62" value="" style="endArrow=classic;html=1;rounded=0;entryX=1;entryY=0.5;entryDx=0;entryDy=0;" edge="1" parent="1" target="n_DNDWNUgmgqfhdWU4qN-27">
          <mxGeometry width="50" height="50" relative="1" as="geometry">
            <mxPoint x="800" y="990" as="sourcePoint" />
            <mxPoint x="670" y="1100" as="targetPoint" />
          </mxGeometry>
        </mxCell>
        <mxCell id="n_DNDWNUgmgqfhdWU4qN-63" value="" style="endArrow=none;html=1;rounded=0;exitX=1;exitY=0.5;exitDx=0;exitDy=0;" edge="1" parent="1" source="n_DNDWNUgmgqfhdWU4qN-56">
          <mxGeometry width="50" height="50" relative="1" as="geometry">
            <mxPoint x="680" y="1310" as="sourcePoint" />
            <mxPoint x="800" y="1440" as="targetPoint" />
          </mxGeometry>
        </mxCell>
        <mxCell id="n_DNDWNUgmgqfhdWU4qN-64" value="" style="endArrow=none;html=1;rounded=0;" edge="1" parent="1">
          <mxGeometry width="50" height="50" relative="1" as="geometry">
            <mxPoint x="800" y="1440" as="sourcePoint" />
            <mxPoint x="800" y="1210" as="targetPoint" />
          </mxGeometry>
        </mxCell>
        <mxCell id="n_DNDWNUgmgqfhdWU4qN-68" value="" style="edgeStyle=orthogonalEdgeStyle;rounded=0;orthogonalLoop=1;jettySize=auto;html=1;" edge="1" parent="1" source="n_DNDWNUgmgqfhdWU4qN-65" target="n_DNDWNUgmgqfhdWU4qN-67">
          <mxGeometry relative="1" as="geometry" />
        </mxCell>
        <mxCell id="n_DNDWNUgmgqfhdWU4qN-71" value="" style="edgeStyle=orthogonalEdgeStyle;rounded=0;orthogonalLoop=1;jettySize=auto;html=1;" edge="1" parent="1" source="n_DNDWNUgmgqfhdWU4qN-65" target="n_DNDWNUgmgqfhdWU4qN-70">
          <mxGeometry relative="1" as="geometry" />
        </mxCell>
        <mxCell id="n_DNDWNUgmgqfhdWU4qN-65" value="&lt;font style=&quot;font-size: 14px;&quot;&gt;length == 0 ?&lt;/font&gt;" style="rhombus;whiteSpace=wrap;html=1;" vertex="1" parent="1">
          <mxGeometry x="220" y="160" width="120" height="80" as="geometry" />
        </mxCell>
        <mxCell id="n_DNDWNUgmgqfhdWU4qN-67" value="Stack is empty" style="shape=parallelogram;perimeter=parallelogramPerimeter;whiteSpace=wrap;html=1;fixedSize=1;" vertex="1" parent="1">
          <mxGeometry x="400" y="170" width="120" height="60" as="geometry" />
        </mxCell>
        <mxCell id="n_DNDWNUgmgqfhdWU4qN-69" value="&lt;font style=&quot;font-size: 14px;&quot;&gt;YES&lt;/font&gt;" style="text;strokeColor=none;align=center;fillColor=none;html=1;verticalAlign=middle;whiteSpace=wrap;rounded=0;" vertex="1" parent="1">
          <mxGeometry x="330" y="170" width="60" height="30" as="geometry" />
        </mxCell>
        <mxCell id="n_DNDWNUgmgqfhdWU4qN-70" value="&lt;font style=&quot;font-size: 14px;&quot;&gt;Вивід &lt;br&gt;елементів&lt;br&gt;&amp;nbsp;в стеку&lt;/font&gt;" style="shape=parallelogram;perimeter=parallelogramPerimeter;whiteSpace=wrap;html=1;fixedSize=1;" vertex="1" parent="1">
          <mxGeometry x="220" y="290" width="120" height="60" as="geometry" />
        </mxCell>
        <mxCell id="n_DNDWNUgmgqfhdWU4qN-72" value="&lt;span style=&quot;font-size: 14px;&quot;&gt;NO&lt;/span&gt;" style="text;strokeColor=none;align=center;fillColor=none;html=1;verticalAlign=middle;whiteSpace=wrap;rounded=0;" vertex="1" parent="1">
          <mxGeometry x="227.5" y="240" width="60" height="30" as="geometry" />
        </mxCell>
        <mxCell id="n_DNDWNUgmgqfhdWU4qN-73" value="&lt;span style=&quot;font-size: 14px;&quot;&gt;push(stack, length, value );&lt;/span&gt;" style="shape=process;whiteSpace=wrap;html=1;backgroundOutline=1;size=0.08333333333333333;" vertex="1" parent="1">
          <mxGeometry x="620" y="1060" width="120" height="60" as="geometry" />
        </mxCell>
        <mxCell id="n_DNDWNUgmgqfhdWU4qN-76" value="" style="edgeStyle=orthogonalEdgeStyle;rounded=0;orthogonalLoop=1;jettySize=auto;html=1;" edge="1" parent="1" source="n_DNDWNUgmgqfhdWU4qN-74" target="n_DNDWNUgmgqfhdWU4qN-75">
          <mxGeometry relative="1" as="geometry" />
        </mxCell>
        <mxCell id="n_DNDWNUgmgqfhdWU4qN-74" value="&lt;span style=&quot;font-size: 14px;&quot;&gt;pop(stack, length, value )&lt;/span&gt;" style="ellipse;whiteSpace=wrap;html=1;" vertex="1" parent="1">
          <mxGeometry x="962.5" y="40" width="130" height="80" as="geometry" />
        </mxCell>
        <mxCell id="n_DNDWNUgmgqfhdWU4qN-78" value="" style="edgeStyle=orthogonalEdgeStyle;rounded=0;orthogonalLoop=1;jettySize=auto;html=1;" edge="1" parent="1" source="n_DNDWNUgmgqfhdWU4qN-75" target="n_DNDWNUgmgqfhdWU4qN-77">
          <mxGeometry relative="1" as="geometry" />
        </mxCell>
        <mxCell id="n_DNDWNUgmgqfhdWU4qN-81" value="" style="edgeStyle=orthogonalEdgeStyle;rounded=0;orthogonalLoop=1;jettySize=auto;html=1;" edge="1" parent="1" source="n_DNDWNUgmgqfhdWU4qN-75" target="n_DNDWNUgmgqfhdWU4qN-80">
          <mxGeometry relative="1" as="geometry" />
        </mxCell>
        <mxCell id="n_DNDWNUgmgqfhdWU4qN-75" value="&lt;font style=&quot;font-size: 14px;&quot;&gt;length &amp;lt;=0 ?&lt;/font&gt;" style="rhombus;whiteSpace=wrap;html=1;" vertex="1" parent="1">
          <mxGeometry x="975" y="160" width="105" height="80" as="geometry" />
        </mxCell>
        <mxCell id="n_DNDWNUgmgqfhdWU4qN-77" value="&lt;font style=&quot;font-size: 14px;&quot;&gt;Stack underflow. No &lt;br&gt;elements to remove&lt;/font&gt;" style="shape=parallelogram;perimeter=parallelogramPerimeter;whiteSpace=wrap;html=1;fixedSize=1;" vertex="1" parent="1">
          <mxGeometry x="1112.5" y="170" width="180" height="60" as="geometry" />
        </mxCell>
        <mxCell id="n_DNDWNUgmgqfhdWU4qN-79" value="&lt;font style=&quot;font-size: 14px;&quot;&gt;YES&lt;/font&gt;" style="text;strokeColor=none;align=center;fillColor=none;html=1;verticalAlign=middle;whiteSpace=wrap;rounded=0;" vertex="1" parent="1">
          <mxGeometry x="1062.5" y="170" width="60" height="30" as="geometry" />
        </mxCell>
        <mxCell id="n_DNDWNUgmgqfhdWU4qN-113" value="" style="edgeStyle=orthogonalEdgeStyle;rounded=0;orthogonalLoop=1;jettySize=auto;html=1;" edge="1" parent="1" source="n_DNDWNUgmgqfhdWU4qN-80" target="n_DNDWNUgmgqfhdWU4qN-112">
          <mxGeometry relative="1" as="geometry" />
        </mxCell>
        <mxCell id="n_DNDWNUgmgqfhdWU4qN-80" value="&lt;font style=&quot;font-size: 14px;&quot;&gt;Вивід &lt;br&gt;елементу, який видаляється&lt;/font&gt;" style="shape=parallelogram;perimeter=parallelogramPerimeter;whiteSpace=wrap;html=1;fixedSize=1;" vertex="1" parent="1">
          <mxGeometry x="960" y="290" width="135" height="60" as="geometry" />
        </mxCell>
        <mxCell id="n_DNDWNUgmgqfhdWU4qN-82" value="&lt;span style=&quot;font-size: 14px;&quot;&gt;NO&lt;/span&gt;" style="text;strokeColor=none;align=center;fillColor=none;html=1;verticalAlign=middle;whiteSpace=wrap;rounded=0;" vertex="1" parent="1">
          <mxGeometry x="975" y="250" width="60" height="30" as="geometry" />
        </mxCell>
        <mxCell id="n_DNDWNUgmgqfhdWU4qN-87" value="" style="edgeStyle=orthogonalEdgeStyle;rounded=0;orthogonalLoop=1;jettySize=auto;html=1;" edge="1" parent="1" source="n_DNDWNUgmgqfhdWU4qN-83" target="n_DNDWNUgmgqfhdWU4qN-85">
          <mxGeometry relative="1" as="geometry" />
        </mxCell>
        <mxCell id="n_DNDWNUgmgqfhdWU4qN-83" value="&lt;span style=&quot;font-size: 14px;&quot;&gt;Зменшення довжини стеку&lt;/span&gt;" style="rounded=0;whiteSpace=wrap;html=1;" vertex="1" parent="1">
          <mxGeometry x="967.5" y="460" width="120" height="60" as="geometry" />
        </mxCell>
        <mxCell id="n_DNDWNUgmgqfhdWU4qN-85" value="printStack( stack, length )" style="shape=process;whiteSpace=wrap;html=1;backgroundOutline=1;size=0.08333333333333333;" vertex="1" parent="1">
          <mxGeometry x="967.5" y="533.3400000000001" width="120" height="60" as="geometry" />
        </mxCell>
        <mxCell id="n_DNDWNUgmgqfhdWU4qN-88" value="&lt;span style=&quot;font-size: 14px;&quot;&gt;pop(stack, length);&lt;/span&gt;" style="shape=process;whiteSpace=wrap;html=1;backgroundOutline=1;" vertex="1" parent="1">
          <mxGeometry x="360" y="1180" width="120" height="60" as="geometry" />
        </mxCell>
        <mxCell id="n_DNDWNUgmgqfhdWU4qN-96" value="" style="edgeStyle=orthogonalEdgeStyle;rounded=0;orthogonalLoop=1;jettySize=auto;html=1;" edge="1" parent="1" source="n_DNDWNUgmgqfhdWU4qN-89" target="n_DNDWNUgmgqfhdWU4qN-95">
          <mxGeometry relative="1" as="geometry" />
        </mxCell>
        <mxCell id="n_DNDWNUgmgqfhdWU4qN-89" value="&lt;span style=&quot;font-size: 14px;&quot;&gt;push(stack, length, value )&lt;/span&gt;" style="ellipse;whiteSpace=wrap;html=1;" vertex="1" parent="1">
          <mxGeometry x="550" y="40" width="130" height="80" as="geometry" />
        </mxCell>
        <mxCell id="n_DNDWNUgmgqfhdWU4qN-90" value="" style="endArrow=none;html=1;rounded=0;exitX=0.461;exitY=0.991;exitDx=0;exitDy=0;exitPerimeter=0;" edge="1" parent="1" source="n_DNDWNUgmgqfhdWU4qN-85">
          <mxGeometry width="50" height="50" relative="1" as="geometry">
            <mxPoint x="1022.5" y="551" as="sourcePoint" />
            <mxPoint x="1022.5" y="600" as="targetPoint" />
          </mxGeometry>
        </mxCell>
        <mxCell id="n_DNDWNUgmgqfhdWU4qN-92" value="&lt;font style=&quot;font-size: 18px;&quot;&gt;return&lt;/font&gt;" style="ellipse;whiteSpace=wrap;html=1;" vertex="1" parent="1">
          <mxGeometry x="1192.5" y="570" width="90" height="60" as="geometry" />
        </mxCell>
        <mxCell id="n_DNDWNUgmgqfhdWU4qN-93" value="" style="endArrow=classic;html=1;rounded=0;entryX=0;entryY=0.5;entryDx=0;entryDy=0;" edge="1" parent="1" target="n_DNDWNUgmgqfhdWU4qN-92">
          <mxGeometry width="50" height="50" relative="1" as="geometry">
            <mxPoint x="1022.5" y="600" as="sourcePoint" />
            <mxPoint x="1102.5" y="490" as="targetPoint" />
          </mxGeometry>
        </mxCell>
        <mxCell id="n_DNDWNUgmgqfhdWU4qN-94" value="" style="endArrow=classic;html=1;rounded=0;entryX=0.444;entryY=0;entryDx=0;entryDy=0;entryPerimeter=0;" edge="1" parent="1" target="n_DNDWNUgmgqfhdWU4qN-92">
          <mxGeometry width="50" height="50" relative="1" as="geometry">
            <mxPoint x="1236.5" y="230" as="sourcePoint" />
            <mxPoint x="1247.5" y="570" as="targetPoint" />
          </mxGeometry>
        </mxCell>
        <mxCell id="n_DNDWNUgmgqfhdWU4qN-98" value="" style="edgeStyle=orthogonalEdgeStyle;rounded=0;orthogonalLoop=1;jettySize=auto;html=1;" edge="1" parent="1" source="n_DNDWNUgmgqfhdWU4qN-95" target="n_DNDWNUgmgqfhdWU4qN-97">
          <mxGeometry relative="1" as="geometry" />
        </mxCell>
        <mxCell id="n_DNDWNUgmgqfhdWU4qN-101" value="" style="edgeStyle=orthogonalEdgeStyle;rounded=0;orthogonalLoop=1;jettySize=auto;html=1;" edge="1" parent="1" source="n_DNDWNUgmgqfhdWU4qN-95" target="n_DNDWNUgmgqfhdWU4qN-100">
          <mxGeometry relative="1" as="geometry" />
        </mxCell>
        <mxCell id="n_DNDWNUgmgqfhdWU4qN-95" value="&lt;font style=&quot;font-size: 14px;&quot;&gt;legth &amp;gt;=SIZE ?&lt;/font&gt;" style="rhombus;whiteSpace=wrap;html=1;" vertex="1" parent="1">
          <mxGeometry x="557.5" y="170" width="115" height="90" as="geometry" />
        </mxCell>
        <mxCell id="n_DNDWNUgmgqfhdWU4qN-97" value="&lt;font style=&quot;font-size: 14px;&quot;&gt;Stack overflow. Cannot add more elements&lt;/font&gt;" style="shape=parallelogram;perimeter=parallelogramPerimeter;whiteSpace=wrap;html=1;fixedSize=1;" vertex="1" parent="1">
          <mxGeometry x="710" y="185" width="201" height="60" as="geometry" />
        </mxCell>
        <mxCell id="n_DNDWNUgmgqfhdWU4qN-99" value="&lt;font style=&quot;font-size: 14px;&quot;&gt;YES&lt;/font&gt;" style="text;strokeColor=none;align=center;fillColor=none;html=1;verticalAlign=middle;whiteSpace=wrap;rounded=0;" vertex="1" parent="1">
          <mxGeometry x="660" y="180" width="60" height="30" as="geometry" />
        </mxCell>
        <mxCell id="n_DNDWNUgmgqfhdWU4qN-103" value="" style="edgeStyle=orthogonalEdgeStyle;rounded=0;orthogonalLoop=1;jettySize=auto;html=1;entryX=0.5;entryY=0;entryDx=0;entryDy=0;" edge="1" parent="1" source="n_DNDWNUgmgqfhdWU4qN-100" target="n_DNDWNUgmgqfhdWU4qN-104">
          <mxGeometry relative="1" as="geometry">
            <mxPoint x="614" y="387" as="targetPoint" />
          </mxGeometry>
        </mxCell>
        <mxCell id="n_DNDWNUgmgqfhdWU4qN-100" value="&lt;font style=&quot;font-size: 14px;&quot;&gt;Додаємо елемент&lt;/font&gt;" style="rounded=0;whiteSpace=wrap;html=1;" vertex="1" parent="1">
          <mxGeometry x="555" y="290" width="120" height="60" as="geometry" />
        </mxCell>
        <mxCell id="n_DNDWNUgmgqfhdWU4qN-119" value="" style="edgeStyle=orthogonalEdgeStyle;rounded=0;orthogonalLoop=1;jettySize=auto;html=1;" edge="1" parent="1" source="n_DNDWNUgmgqfhdWU4qN-104" target="n_DNDWNUgmgqfhdWU4qN-118">
          <mxGeometry relative="1" as="geometry" />
        </mxCell>
        <mxCell id="n_DNDWNUgmgqfhdWU4qN-104" value="&lt;font style=&quot;font-size: 14px;&quot;&gt;Виведення доданого елементу&lt;/font&gt;" style="shape=parallelogram;perimeter=parallelogramPerimeter;whiteSpace=wrap;html=1;fixedSize=1;" vertex="1" parent="1">
          <mxGeometry x="555" y="390" width="120" height="60" as="geometry" />
        </mxCell>
        <mxCell id="n_DNDWNUgmgqfhdWU4qN-106" value="printStack( stack, length )" style="shape=process;whiteSpace=wrap;html=1;backgroundOutline=1;size=0.08333333333333333;" vertex="1" parent="1">
          <mxGeometry x="555" y="595" width="120" height="60" as="geometry" />
        </mxCell>
        <mxCell id="n_DNDWNUgmgqfhdWU4qN-108" value="&lt;font style=&quot;font-size: 18px;&quot;&gt;return&lt;/font&gt;" style="ellipse;whiteSpace=wrap;html=1;" vertex="1" parent="1">
          <mxGeometry x="750" y="640" width="90" height="60" as="geometry" />
        </mxCell>
        <mxCell id="n_DNDWNUgmgqfhdWU4qN-109" value="" style="endArrow=classic;html=1;rounded=0;exitX=0.441;exitY=0.988;exitDx=0;exitDy=0;entryX=0.5;entryY=0;entryDx=0;entryDy=0;exitPerimeter=0;" edge="1" parent="1" source="n_DNDWNUgmgqfhdWU4qN-97" target="n_DNDWNUgmgqfhdWU4qN-108">
          <mxGeometry width="50" height="50" relative="1" as="geometry">
            <mxPoint x="420" y="470" as="sourcePoint" />
            <mxPoint x="470" y="420" as="targetPoint" />
          </mxGeometry>
        </mxCell>
        <mxCell id="n_DNDWNUgmgqfhdWU4qN-110" value="" style="endArrow=none;html=1;rounded=0;entryX=0.462;entryY=1.004;entryDx=0;entryDy=0;entryPerimeter=0;" edge="1" parent="1" target="n_DNDWNUgmgqfhdWU4qN-106">
          <mxGeometry width="50" height="50" relative="1" as="geometry">
            <mxPoint x="610" y="670" as="sourcePoint" />
            <mxPoint x="470" y="420" as="targetPoint" />
          </mxGeometry>
        </mxCell>
        <mxCell id="n_DNDWNUgmgqfhdWU4qN-111" value="" style="endArrow=classic;html=1;rounded=0;entryX=0;entryY=0.5;entryDx=0;entryDy=0;" edge="1" parent="1" target="n_DNDWNUgmgqfhdWU4qN-108">
          <mxGeometry width="50" height="50" relative="1" as="geometry">
            <mxPoint x="610" y="670" as="sourcePoint" />
            <mxPoint x="560" y="530" as="targetPoint" />
          </mxGeometry>
        </mxCell>
        <mxCell id="n_DNDWNUgmgqfhdWU4qN-112" value="Видалення елементу з стеку" style="rounded=0;whiteSpace=wrap;html=1;" vertex="1" parent="1">
          <mxGeometry x="967.5" y="380" width="120" height="60" as="geometry" />
        </mxCell>
        <mxCell id="n_DNDWNUgmgqfhdWU4qN-117" value="" style="endArrow=classic;html=1;rounded=0;exitX=0.466;exitY=0.996;exitDx=0;exitDy=0;exitPerimeter=0;entryX=0.466;entryY=-0.007;entryDx=0;entryDy=0;entryPerimeter=0;" edge="1" parent="1" source="n_DNDWNUgmgqfhdWU4qN-112" target="n_DNDWNUgmgqfhdWU4qN-83">
          <mxGeometry width="50" height="50" relative="1" as="geometry">
            <mxPoint x="972.5" y="450" as="sourcePoint" />
            <mxPoint x="1022.5" y="400" as="targetPoint" />
          </mxGeometry>
        </mxCell>
        <mxCell id="n_DNDWNUgmgqfhdWU4qN-120" value="" style="edgeStyle=orthogonalEdgeStyle;rounded=0;orthogonalLoop=1;jettySize=auto;html=1;" edge="1" parent="1" source="n_DNDWNUgmgqfhdWU4qN-118" target="n_DNDWNUgmgqfhdWU4qN-106">
          <mxGeometry relative="1" as="geometry" />
        </mxCell>
        <mxCell id="n_DNDWNUgmgqfhdWU4qN-118" value="&lt;font style=&quot;font-size: 14px;&quot;&gt;Збільшення дожини стеку&lt;/font&gt;" style="rounded=0;whiteSpace=wrap;html=1;" vertex="1" parent="1">
          <mxGeometry x="555" y="490" width="120" height="60" as="geometry" />
        </mxCell>
        <mxCell id="n_DNDWNUgmgqfhdWU4qN-121" value="&lt;span style=&quot;font-size: 14px;&quot;&gt;NO&lt;/span&gt;" style="text;strokeColor=none;align=center;fillColor=none;html=1;verticalAlign=middle;whiteSpace=wrap;rounded=0;" vertex="1" parent="1">
          <mxGeometry x="570" y="260" width="60" height="30" as="geometry" />
        </mxCell>
        <mxCell id="n_DNDWNUgmgqfhdWU4qN-122" value="&lt;font style=&quot;font-size: 18px;&quot;&gt;return&lt;/font&gt;" style="ellipse;whiteSpace=wrap;html=1;" vertex="1" parent="1">
          <mxGeometry x="390" y="350" width="90" height="60" as="geometry" />
        </mxCell>
        <mxCell id="n_DNDWNUgmgqfhdWU4qN-123" value="" style="endArrow=none;html=1;rounded=0;exitX=0.5;exitY=1;exitDx=0;exitDy=0;" edge="1" parent="1" source="n_DNDWNUgmgqfhdWU4qN-70">
          <mxGeometry width="50" height="50" relative="1" as="geometry">
            <mxPoint x="720" y="460" as="sourcePoint" />
            <mxPoint x="280" y="380" as="targetPoint" />
          </mxGeometry>
        </mxCell>
        <mxCell id="n_DNDWNUgmgqfhdWU4qN-124" value="" style="endArrow=classic;html=1;rounded=0;" edge="1" parent="1">
          <mxGeometry width="50" height="50" relative="1" as="geometry">
            <mxPoint x="280" y="380" as="sourcePoint" />
            <mxPoint x="390" y="380" as="targetPoint" />
          </mxGeometry>
        </mxCell>
        <mxCell id="n_DNDWNUgmgqfhdWU4qN-125" value="" style="endArrow=classic;html=1;rounded=0;exitX=0.38;exitY=1.031;exitDx=0;exitDy=0;exitPerimeter=0;entryX=0.612;entryY=0.019;entryDx=0;entryDy=0;entryPerimeter=0;" edge="1" parent="1">
          <mxGeometry width="50" height="50" relative="1" as="geometry">
            <mxPoint x="435.14999999999986" y="230.72000000000003" as="sourcePoint" />
            <mxPoint x="434.6299999999999" y="350" as="targetPoint" />
          </mxGeometry>
        </mxCell>
      </root>
    </mxGraphModel>
  </diagram>
</mxfile>
